<svg xmlns="http://www.w3.org/2000/svg" viewBox="0 0 256 256" width="50" height="50"><path d="M256.32 53.44c-9.46 4.2-19.6 7.02-30.26 8.3 10.88-6.52 19.24-16.84 23.16-29.12a105.717 105.717 0 01-33.44 12.76 52.522 52.522 0 00-38.42-16.62c-29.08 0-52.66 23.56-52.66 52.64 0 4.12.48 8.14 1.38 12-43.76-2.2-82.54-23.16-108.52-55.02-4.54 7.8-7.12 16.84-7.12 26.48 0 18.26 9.28 34.38 23.42 43.84A52.601 52.601 0 0110 102.1v.66c0 25.52 18.16 46.78 42.22 51.64a52.68 52.68 0 01-13.86 1.84c-3.4 0-6.7-.32-9.92-.96 6.72 20.9 26.16 36.16 49.18 36.58-18 14.12-40.7 22.52-65.38 22.52-4.26 0-8.44-.24-12.54-.74 23.28 14.96 50.96 23.66 80.7 23.66 96.84 0 149.8-80.22 149.8-149.78 0-2.28-.06-4.58-.14-6.82 10.28-7.42 19.2-16.7 26.26-27.26z" fill="#fff" font-family="none" font-weight="none" font-size="none" text-anchor="none"/></svg>