<svg xmlns="http://www.w3.org/2000/svg" viewBox="0 0 256 256" width="50" height="50"><path d="M209.92 20.48H46.08c-14.116 0-25.6 11.484-25.6 25.6v163.84c0 14.116 11.484 25.6 25.6 25.6h163.84c14.116 0 25.6-11.484 25.6-25.6V46.08c0-14.116-11.484-25.6-25.6-25.6zm-20.45 93.814c-1.162.107-2.34.179-3.532.179-13.43 0-25.231-6.907-32.097-17.347v59.07c0 24.11-19.549 43.658-43.659 43.658s-43.658-19.548-43.658-43.658c0-24.11 19.548-43.658 43.658-43.658.912 0 1.803.082 2.699.138v21.514c-.896-.107-1.777-.271-2.699-.271-12.308 0-22.282 9.973-22.282 22.282 0 12.308 9.974 22.282 22.282 22.282 12.309 0 23.179-9.697 23.179-22.006 0-.486.215-100.32.215-100.32h20.562c1.935 18.385 16.778 32.895 35.333 34.226z" fill="#fff" font-family="none" font-weight="none" font-size="none" text-anchor="none"/></svg>